# xmcd
#
# Track frame offsets: 
#        183
#        15103
#        33550
#        45683
#
# Disc length: 784 seconds
#
# Revision: 0
# Processed by: cddbd v1.5.2PL0 Copyright (c) Steve Scherf et al.
# Submitted via: ExactAudioCopy v0.99pb4
#
DISCID=23030e04
DTITLE=Family Dogg - CD Single Classic
DYEAR=1900
DGENRE=Pop
TTITLE0=Sympathy
TTITLE1=A Way Of Life
TTITLE2=Arizona
TTITLE3=Judy's Just Gone
EXTD=
EXTT0=
EXTT1=
EXTT2=
EXTT3=
PLAYORDER=
